<svg width="14" height="12" viewBox="0 0 14 12" fill="none" xmlns="http://www.w3.org/2000/svg">
<path fill-rule="evenodd" clip-rule="evenodd" d="M6.95999 6.66667C8.80092 6.66667 10.2933 5.17427 10.2933 3.33333C10.2933 1.49239 8.80092 0 6.95999 0C5.11904 0 3.62666 1.49239 3.62666 3.33333C3.62666 4.29851 4.03687 5.16787 4.69246 5.7766C2.50288 6.671 0.959991 8.822 0.959991 11.3333C0.959991 11.7015 1.25847 12 1.62666 12H6.95999C7.32819 12 7.62666 11.7015 7.62666 11.3333C7.62666 10.9651 7.32819 10.6667 6.95999 10.6667H2.34058C2.66407 8.40513 4.60901 6.66667 6.95999 6.66667ZM8.95999 3.33333C8.95999 4.4379 8.06459 5.33333 6.95999 5.33333C5.85539 5.33333 4.95999 4.4379 4.95999 3.33333C4.95999 2.22877 5.85539 1.33333 6.95999 1.33333C8.06459 1.33333 8.95999 2.22877 8.95999 3.33333Z" fill="white"/>
<path d="M10.2933 7.33329C10.2933 6.96509 10.5918 6.66663 10.96 6.66663C11.3282 6.66663 11.6267 6.96509 11.6267 7.33329V8.66663H12.96C13.3282 8.66663 13.6267 8.96509 13.6267 9.33329C13.6267 9.70149 13.3282 9.99996 12.96 9.99996H11.6267V11.3333C11.6267 11.7015 11.3282 12 10.96 12C10.5918 12 10.2933 11.7015 10.2933 11.3333V9.99996H8.96C8.5918 9.99996 8.29333 9.70149 8.29333 9.33329C8.29333 8.96509 8.5918 8.66663 8.96 8.66663H10.2933V7.33329Z" fill="white"/>
</svg>
