<svg width="18" height="18" viewBox="0 0 18 18" fill="none" xmlns="http://www.w3.org/2000/svg">
<path fill-rule="evenodd" clip-rule="evenodd" d="M0.666687 8.99996C0.666687 4.39718 4.39725 0.666626 9.00002 0.666626C13.6028 0.666626 17.3334 4.39718 17.3334 8.99996C17.3334 13.6027 13.6028 17.3333 9.00002 17.3333C4.39725 17.3333 0.666687 13.6027 0.666687 8.99996ZM2.33335 8.99996C2.33335 12.6823 5.31772 15.6666 9.00002 15.6666C12.6824 15.6666 15.6667 12.6823 15.6667 8.99996C15.6667 5.31766 12.6824 2.33329 9.00002 2.33329C5.31772 2.33329 2.33335 5.31766 2.33335 8.99996ZM5.66669 7.33329C5.66668 5.23648 7.60119 3.59253 9.78244 4.08923C10.9858 4.36257 11.9641 5.33757 12.2416 6.54007C12.6508 8.31421 11.6433 9.90921 10.1324 10.4559C9.96244 10.5167 9.8416 10.6684 9.8416 10.8492V10.6667C9.8416 11.1267 9.4691 11.5 9.00827 11.5C8.54827 11.5 8.17494 11.1267 8.17494 10.6667V9.82254C8.1816 9.36754 8.54994 9.00004 8.99994 9.00004C9.9191 9.00004 10.6666 8.25171 10.6666 7.33338C10.6666 6.41423 9.9191 5.66673 8.99994 5.66673C8.07994 5.66673 7.33281 6.4359 7.33369 7.35588C7.32104 7.80546 6.95245 8.16663 6.50002 8.16663C6.0648 8.16663 5.70715 7.83246 5.6699 7.40679C5.6699 7.40679 5.66669 7.35804 5.66669 7.33329ZM9.00002 14C8.54002 14 8.16669 13.6266 8.16669 13.1666C8.16669 12.7066 8.54002 12.3333 9.00002 12.3333C9.46002 12.3333 9.83335 12.7066 9.83335 13.1666C9.83335 13.6266 9.46002 14 9.00002 14Z" fill="#44546F"/>
</svg>
