<svg width="12" height="13" viewBox="0 0 12 13" fill="none" xmlns="http://www.w3.org/2000/svg">
<path fill-rule="evenodd" clip-rule="evenodd" d="M2 1.46672V2.13338H1.33C0.594667 2.13338 0 2.72872 0 3.46272V11.4707C0 12.204 0.595333 12.8 1.33 12.8H10.67C11.4053 12.8 12 12.2047 12 11.4707V3.46272C12 2.73005 11.4047 2.13338 10.67 2.13338H10V1.46672C10 1.09872 9.70133 0.800049 9.33333 0.800049C8.96533 0.800049 8.66667 1.09872 8.66667 1.46672V2.13338H3.33333V1.46672C3.33333 1.09872 3.03467 0.800049 2.66667 0.800049C2.29867 0.800049 2 1.09872 2 1.46672ZM1.5 5.18072V10.612C1.5 10.982 1.796 11.276 2.162 11.276H9.83867C10.2 11.276 10.5 10.9787 10.5 10.612V5.18072H1.5ZM4 7.46672V6.13272H2.66667V7.46672H4ZM9.33333 6.13272V7.46672H8V6.13272H9.33333ZM5.33333 7.46672H6.66733V6.13272H5.33333V7.46672ZM2.66667 10.1334V8.80005H4V10.1334H2.66667ZM5.33333 10.1334H6.66733V8.80005H5.33333V10.1334ZM9.33333 8.80005V10.1334H8V8.80005H9.33333Z" fill="#626F86"/>
</svg>
