<svg width="13" height="13" viewBox="0 0 13 13" fill="none" xmlns="http://www.w3.org/2000/svg">
<path fill-rule="evenodd" clip-rule="evenodd" d="M6.01691 0.800049C4.17073 0.800049 2.67413 2.29244 2.67413 4.13338C2.67413 5.97432 4.17073 7.46672 6.01691 7.46672C7.86305 7.46672 9.35965 5.97432 9.35965 4.13338C9.35965 2.29244 7.86305 0.800049 6.01691 0.800049ZM4.01123 4.13338C4.01123 5.23795 4.90918 6.13338 6.01691 6.13338C7.12458 6.13338 8.02251 5.23795 8.02251 4.13338C8.02251 3.02882 7.12458 2.13338 6.01691 2.13338C4.90918 2.13338 4.01123 3.02882 4.01123 4.13338Z" fill="#626F86"/>
<path fill-rule="evenodd" clip-rule="evenodd" d="M6.01691 6.13342C9.18685 6.13342 11.7843 8.57789 12.0169 11.6797C11.9147 12.3148 11.3626 12.8001 10.6968 12.8001H10.6494H1.38445H1.33706C0.671254 12.8001 0.119113 12.3148 0.0169067 11.6796C0.2495 8.57789 2.8469 6.13342 6.01691 6.13342ZM1.38445 11.4668H10.6494C10.325 9.20522 8.37451 7.46676 6.01691 7.46676C3.65926 7.46676 1.70885 9.20522 1.38445 11.4668ZM10.6967 12.118V12.1488C10.6968 12.1437 10.6968 12.1386 10.6968 12.1334C10.6968 12.1283 10.6968 12.1232 10.6967 12.118Z" fill="#626F86"/>
</svg>
