<svg width="12" height="4" viewBox="0 0 12 4" fill="none" xmlns="http://www.w3.org/2000/svg">
<path fill-rule="evenodd" clip-rule="evenodd" d="M1.33333 3.33332C2.06971 3.33332 2.66667 2.73639 2.66667 1.99999C2.66667 1.26359 2.06971 0.666656 1.33333 0.666656C0.596953 0.666656 0 1.26359 0 1.99999C0 2.73639 0.596953 3.33332 1.33333 3.33332ZM6 3.33332C6.7364 3.33332 7.33333 2.73639 7.33333 1.99999C7.33333 1.26359 6.7364 0.666656 6 0.666656C5.2636 0.666656 4.66667 1.26359 4.66667 1.99999C4.66667 2.73639 5.2636 3.33332 6 3.33332ZM12 1.99999C12 2.73639 11.4031 3.33332 10.6667 3.33332C9.93027 3.33332 9.33333 2.73639 9.33333 1.99999C9.33333 1.26359 9.93027 0.666656 10.6667 0.666656C11.4031 0.666656 12 1.26359 12 1.99999Z" fill="#626F86"/>
</svg>
