<svg width="18" height="8" viewBox="0 0 18 8" fill="none" xmlns="http://www.w3.org/2000/svg">
<path d="M5.062 3.00001L3.5 1.91401C3.31784 1.72541 3.21705 1.47281 3.21933 1.21061C3.2216 0.948413 3.32677 0.6976 3.51218 0.512192C3.69759 0.326784 3.9484 0.221616 4.2106 0.219337C4.4728 0.217059 4.7254 0.317853 4.914 0.500011L7.53 3.11601C7.81 3.28301 8 3.61601 8 4.00001C8 4.38401 7.81 4.71701 7.53 4.88401L4.914 7.50001C4.82175 7.59552 4.71141 7.6717 4.5894 7.72411C4.4674 7.77652 4.33618 7.80411 4.2034 7.80526C4.07062 7.80642 3.93894 7.78111 3.81605 7.73083C3.69315 7.68055 3.5815 7.6063 3.48761 7.51241C3.39371 7.41851 3.31946 7.30686 3.26918 7.18397C3.2189 7.06107 3.1936 6.92939 3.19475 6.79661C3.1959 6.66383 3.22349 6.53261 3.2759 6.41061C3.32831 6.2886 3.40449 6.17826 3.5 6.08601L5.062 5.00001H1.382C0.895 5.00001 0.5 4.55201 0.5 4.00001C0.5 3.44801 0.895 3.00001 1.382 3.00001H5.062ZM10.47 4.88401C10.19 4.71701 10 4.38401 10 4.00001C10 3.61601 10.19 3.28301 10.47 3.11601L13.086 0.500011C13.2746 0.317853 13.5272 0.217059 13.7894 0.219337C14.0516 0.221616 14.3024 0.326784 14.4878 0.512192C14.6732 0.6976 14.7784 0.948413 14.7807 1.21061C14.783 1.47281 14.6822 1.72541 14.5 1.91401L12.938 3.00001H16.618C17.105 3.00001 17.5 3.44801 17.5 4.00001C17.5 4.55201 17.105 5.00001 16.618 5.00001H12.938L14.5 6.08601C14.6822 6.27461 14.783 6.52722 14.7807 6.78941C14.7784 7.05161 14.6732 7.30242 14.4878 7.48783C14.3024 7.67324 14.0516 7.77841 13.7894 7.78068C13.5272 7.78296 13.2746 7.68217 13.086 7.50001L10.47 4.88401Z" fill="#626F86"/>
</svg>
