<svg width="9" height="5" viewBox="0 0 9 5" fill="none" xmlns="http://www.w3.org/2000/svg">
<path fill-rule="evenodd" clip-rule="evenodd" d="M0.491996 0.292941C0.305429 0.48196 0.200821 0.736856 0.200821 1.00244C0.200821 1.26802 0.305429 1.52292 0.491996 1.71194L3.431 4.67694C3.649 4.89194 3.931 4.99894 4.21 4.99894C4.489 4.99894 4.766 4.89194 4.979 4.67694L7.909 1.72194C8.09556 1.53292 8.20017 1.27803 8.20017 1.01244C8.20017 0.746856 8.09556 0.49196 7.909 0.302941C7.81716 0.209757 7.70772 0.135759 7.58704 0.0852509C7.46635 0.0347429 7.33683 0.0087328 7.206 0.0087328C7.07517 0.0087328 6.94564 0.0347429 6.82495 0.0852509C6.70427 0.135759 6.59483 0.209757 6.503 0.302941L4.205 2.61994L1.898 0.292941C1.80596 0.20012 1.69645 0.126444 1.57579 0.0761652C1.45513 0.0258864 1.32571 0 1.195 0C1.06428 0 0.934859 0.0258864 0.814199 0.0761652C0.69354 0.126444 0.584033 0.20012 0.491996 0.292941Z" fill="#44546F"/>
</svg>
