<svg width="14" height="14" viewBox="0 0 14 14" fill="none" xmlns="http://www.w3.org/2000/svg">
<path fill-rule="evenodd" clip-rule="evenodd" d="M3.88666 12.9967L6.88996 11.4177L9.89329 12.9967C10.094 13.1022 10.3238 13.1386 10.5473 13.1003C11.1084 13.004 11.4854 12.4711 11.3891 11.9099L10.8155 8.56568L13.2452 6.19728C13.4076 6.03901 13.5132 5.83168 13.5458 5.6073C13.6277 5.04385 13.2373 4.52072 12.6739 4.43884L9.31609 3.95092L7.81442 0.90825C7.71409 0.704937 7.54949 0.54037 7.34623 0.44003C6.83563 0.18805 6.21749 0.397677 5.96549 0.90825L4.46384 3.95092L1.10604 4.43884C0.881671 4.47144 0.674311 4.5771 0.516051 4.73946C0.118631 5.14717 0.126971 5.79988 0.534685 6.19728L2.96441 8.56568L2.39083 11.9099C2.3525 12.1333 2.38891 12.3632 2.49441 12.5639C2.75936 13.0679 3.38269 13.2616 3.88666 12.9967ZM11.7872 5.69901L9.33856 8.08581L9.91656 11.456L6.88996 9.86481L3.86332 11.456L4.44136 8.08581L1.99276 5.69901L5.37664 5.2073L6.88996 2.14098L8.40329 5.2073L11.7872 5.69901Z" fill="white"/>
</svg>
