<svg width="14" height="10" viewBox="0 0 14 10" fill="none" xmlns="http://www.w3.org/2000/svg">
<path fill-rule="evenodd" clip-rule="evenodd" d="M0.223328 1.46666V6.8C0.223328 7.5364 0.820281 8.13333 1.55666 8.13333H2.88999C3.62637 8.13333 4.22333 7.5364 4.22333 6.8V1.46666C4.22333 0.730285 3.62637 0.133331 2.88999 0.133331H1.55666C0.820281 0.133331 0.223328 0.730285 0.223328 1.46666ZM1.55666 1.46666V6.8H2.88999V1.46666H1.55666Z" fill="#172B4D"/>
<path fill-rule="evenodd" clip-rule="evenodd" d="M4.89 1.46666V5.46666C4.89 6.20306 5.48695 6.8 6.22333 6.8H7.55667C8.29307 6.8 8.89 6.20306 8.89 5.46666V1.46666C8.89 0.730285 8.29307 0.133331 7.55667 0.133331H6.22333C5.48695 0.133331 4.89 0.730285 4.89 1.46666ZM6.22333 1.46666V5.46666H7.55667V1.46666H6.22333Z" fill="#172B4D"/>
<path fill-rule="evenodd" clip-rule="evenodd" d="M9.55667 8.13333V1.46666C9.55667 0.730285 10.1536 0.133331 10.89 0.133331H12.2233C12.9597 0.133331 13.5567 0.730285 13.5567 1.46666V8.13333C13.5567 8.86973 12.9597 9.46667 12.2233 9.46667H10.89C10.1536 9.46667 9.55667 8.86973 9.55667 8.13333ZM10.89 8.13333V1.46666H12.2233V8.13333H10.89Z" fill="#172B4D"/>
</svg>
