<svg width="7" height="10" viewBox="0 0 7 10" fill="none" xmlns="http://www.w3.org/2000/svg">
<path fill-rule="evenodd" clip-rule="evenodd" d="M6.15729 7.68649C6.26609 7.79379 6.35239 7.92149 6.41129 8.0624C6.47029 8.2033 6.50059 8.35449 6.50059 8.50729C6.50059 8.65999 6.47029 8.8112 6.41129 8.9521C6.35239 9.09299 6.26609 9.22079 6.15729 9.32799C5.93679 9.54569 5.63939 9.66769 5.32959 9.66769C5.01969 9.66769 4.72229 9.54569 4.50179 9.32799L1.04259 5.89799C0.923401 5.77979 0.828761 5.63909 0.764181 5.48419C0.699601 5.32919 0.666351 5.16289 0.666351 4.99499C0.666351 4.82709 0.699601 4.66089 0.764181 4.50589C0.828761 4.35089 0.923401 4.21019 1.04259 4.09199L4.49009 0.673684C4.71069 0.455674 5.00829 0.333405 5.31849 0.333405C5.62859 0.333405 5.92619 0.455674 6.14679 0.673684C6.25559 0.780924 6.34189 0.908704 6.40079 1.04959C6.45979 1.19049 6.49009 1.34169 6.49009 1.49439C6.49009 1.64719 6.45979 1.79839 6.40079 1.93929C6.34189 2.08019 6.25559 2.20799 6.14679 2.31519L3.44249 4.99499L6.15729 7.68649Z" fill="#948873"/>
</svg>
