<svg width="16" height="17" viewBox="0 0 16 17" fill="none" xmlns="http://www.w3.org/2000/svg">
<path fill-rule="evenodd" clip-rule="evenodd" d="M2.59002 13.83C2.77577 14.016 2.99634 14.1635 3.23914 14.2641C3.48193 14.3648 3.74219 14.4166 4.00502 14.4166C4.26785 14.4166 4.5281 14.3648 4.7709 14.2641C5.0137 14.1635 5.23427 14.016 5.42002 13.83L2.59002 11C2.40407 11.1857 2.25655 11.4063 2.1559 11.6491C2.05525 11.8919 2.00345 12.1522 2.00345 12.415C2.00345 12.6778 2.05525 12.9381 2.1559 13.1809C2.25655 13.4237 2.40407 13.6443 2.59002 13.83ZM7.38002 1.48C7.84845 1.01057 8.40492 0.638195 9.01753 0.384227C9.63014 0.130259 10.2868 -0.00031092 10.95 5.55956e-07C11.92 5.55956e-07 12.9 0.280001 13.74 0.840001C13.76 0.813334 13.7834 0.79 13.81 0.770001C13.9048 0.665835 14.0203 0.582642 14.1492 0.525765C14.278 0.468887 14.4173 0.439581 14.5581 0.43973C14.699 0.439879 14.8382 0.469479 14.9669 0.526629C15.0956 0.583779 15.211 0.667215 15.3055 0.771581C15.4001 0.875947 15.4718 0.998935 15.516 1.13265C15.5602 1.26636 15.576 1.40784 15.5623 1.548C15.5486 1.68817 15.5057 1.82392 15.4364 1.94653C15.3672 2.06915 15.273 2.17593 15.16 2.26C15.8033 3.23125 16.091 4.39504 15.9743 5.55415C15.8577 6.71325 15.3439 7.79639 14.52 8.62L13.8 9.35C13.02 10.13 11.99 11.56 11.49 12.56L9.98002 15.58C9.73002 16.08 9.21002 16.16 8.81002 15.77L0.250019 7.22C-0.149981 6.82 -0.0599809 6.3 0.440019 6.05L3.46002 4.54C4.45002 4.05 5.88002 3.01 6.67002 2.23L7.38002 1.48ZM10.12 11.11C10.64 10.14 11.69 8.71 12.47 7.93L13.2 7.2C13.6954 6.70372 14.0046 6.0519 14.0756 5.35431C14.1467 4.65671 13.9752 3.95595 13.59 3.37C13.4 3.08 12.87 2.6 12.73 2.51C12.2324 2.17847 11.648 2.00107 11.05 2C10.25 2 9.48002 2.31 8.89002 2.89L7.94002 3.84C7.16002 4.63 5.72002 5.66 4.74002 6.15L3.00002 7.02L9.07002 13.09L10.12 11.11Z" fill="#44546F"/>
</svg>
