<svg width="12" height="13" viewBox="0 0 12 13" fill="none" xmlns="http://www.w3.org/2000/svg">
<path d="M6 0.800049C5.6318 0.800049 5.33333 1.09853 5.33333 1.46672V6.13338H0.666667C0.29848 6.13338 0 6.43185 0 6.80005C0 7.16825 0.29848 7.46672 0.666667 7.46672H5.33333V12.1334C5.33333 12.5016 5.6318 12.8 6 12.8C6.3682 12.8 6.66667 12.5016 6.66667 12.1334V7.46672H11.3333C11.7015 7.46672 12 7.16825 12 6.80005C12 6.43185 11.7015 6.13338 11.3333 6.13338H6.66667V1.46672C6.66667 1.09853 6.3682 0.800049 6 0.800049Z" fill="#44546F"/>
</svg>
