<svg width="10" height="13" viewBox="0 0 10 13" fill="none" xmlns="http://www.w3.org/2000/svg">
<path fill-rule="evenodd" clip-rule="evenodd" d="M0.333336 5.53341C0.333336 4.79703 0.930289 4.20007 1.66667 4.20007H2.33334H3.66667H6.33334H7.66667H8.33334C9.06974 4.20007 9.66667 4.79703 9.66667 5.53341V10.8667C9.66667 11.6031 9.06974 12.2001 8.33334 12.2001H1.66667C0.930289 12.2001 0.333336 11.6031 0.333336 10.8667V5.53341ZM3.66667 5.53341H6.33334H7.66667H8.33334V10.8667H1.66667V5.53341H2.33334H3.66667ZM6.33334 8.20007C6.33334 8.93647 5.7364 9.53341 5 9.53341C4.2636 9.53341 3.66667 8.93647 3.66667 8.20007C3.66667 7.46367 4.2636 6.86674 5 6.86674C5.7364 6.86674 6.33334 7.46367 6.33334 8.20007Z" fill="#626F86"/>
<path fill-rule="evenodd" clip-rule="evenodd" d="M3.92114 1.99905C3.73214 2.26903 3.66667 2.62076 3.66667 2.86674V4.20007H2.33334V2.86674C2.33334 2.44605 2.4345 1.79778 2.82885 1.23443C3.25016 0.632567 3.9578 0.200073 5 0.200073C6.0422 0.200073 6.74987 0.632567 7.17114 1.23443C7.56547 1.79778 7.66667 2.44605 7.66667 2.86674V4.20007H6.33334V2.86674C6.33334 2.62076 6.26787 2.26903 6.07887 1.99905C5.9168 1.76758 5.62447 1.53341 5 1.53341C4.37554 1.53341 4.0832 1.76758 3.92114 1.99905Z" fill="#626F86"/>
</svg>
