<svg width="10" height="12" viewBox="0 0 10 12" fill="none" xmlns="http://www.w3.org/2000/svg">
<path fill-rule="evenodd" clip-rule="evenodd" d="M0.223328 5.33333C0.223328 4.59695 0.820281 4 1.55666 4H2.22333H3.55666H6.22333H7.55666H8.22333C8.95973 4 9.55666 4.59695 9.55666 5.33333V10.6667C9.55666 11.4031 8.95973 12 8.22333 12H1.55666C0.820281 12 0.223328 11.4031 0.223328 10.6667V5.33333ZM3.55666 5.33333H6.22333H7.55666H8.22333V10.6667H1.55666V5.33333H2.22333H3.55666ZM6.22333 8C6.22333 8.7364 5.62639 9.33333 4.88999 9.33333C4.15359 9.33333 3.55666 8.7364 3.55666 8C3.55666 7.2636 4.15359 6.66667 4.88999 6.66667C5.62639 6.66667 6.22333 7.2636 6.22333 8Z" fill="white"/>
<path fill-rule="evenodd" clip-rule="evenodd" d="M3.81113 1.79897C3.62213 2.06896 3.55666 2.42069 3.55666 2.66667V4H2.22333V2.66667C2.22333 2.24598 2.32449 1.59771 2.71884 1.03436C3.14015 0.432493 3.84779 0 4.88999 0C5.93219 0 6.63986 0.432493 7.06113 1.03436C7.45546 1.59771 7.55666 2.24598 7.55666 2.66667V4H6.22333V2.66667C6.22333 2.42069 6.15786 2.06896 5.96886 1.79897C5.80679 1.56751 5.51446 1.33333 4.88999 1.33333C4.26553 1.33333 3.97319 1.56751 3.81113 1.79897Z" fill="white"/>
</svg>
