<svg width="12" height="12" viewBox="0 0 12 12" fill="none" xmlns="http://www.w3.org/2000/svg">
<path fill-rule="evenodd" clip-rule="evenodd" d="M5 10C2.23857 10 0 7.7614 0 5C0 2.23857 2.23857 0 5 0C7.7614 0 10 2.23857 10 5C10 6.15127 9.61093 7.21167 8.95707 8.0568L11.5846 10.7302C11.8427 10.9928 11.8391 11.4149 11.5765 11.673C11.3139 11.9311 10.8917 11.9274 10.6337 11.6648L8.0086 8.99393C7.17147 9.62553 6.12947 10 5 10ZM8.66667 5C8.66667 7.02507 7.02507 8.66667 5 8.66667C2.97495 8.66667 1.33333 7.02507 1.33333 5C1.33333 2.97495 2.97495 1.33333 5 1.33333C7.02507 1.33333 8.66667 2.97495 8.66667 5Z" fill="#626F86"/>
</svg>
