<svg width="13" height="13" viewBox="0 0 13 13" fill="none" xmlns="http://www.w3.org/2000/svg">
<path fill-rule="evenodd" clip-rule="evenodd" d="M6.25 6.86668C8.09093 6.86668 9.58333 5.37428 9.58333 3.53335C9.58333 1.6924 8.09093 0.200012 6.25 0.200012C4.40905 0.200012 2.91667 1.6924 2.91667 3.53335C2.91667 4.49853 3.32688 5.36788 3.98247 5.97661C1.79289 6.87101 0.25 9.02201 0.25 11.5333C0.25 11.9015 0.54848 12.2 0.916667 12.2H6.25C6.6182 12.2 6.91667 11.9015 6.91667 11.5333C6.91667 11.1651 6.6182 10.8667 6.25 10.8667H1.63059C1.95408 8.60515 3.89902 6.86668 6.25 6.86668ZM8.25 3.53335C8.25 4.63791 7.3546 5.53335 6.25 5.53335C5.1454 5.53335 4.25 4.63791 4.25 3.53335C4.25 2.42878 5.1454 1.53335 6.25 1.53335C7.3546 1.53335 8.25 2.42878 8.25 3.53335Z" fill="#172B4D"/>
<path d="M9.58331 7.53334C9.58331 7.16514 9.88178 6.86667 10.25 6.86667C10.6182 6.86667 10.9166 7.16514 10.9166 7.53334V8.86667H12.25C12.6182 8.86667 12.9166 9.16514 12.9166 9.53334C12.9166 9.90154 12.6182 10.2 12.25 10.2H10.9166V11.5333C10.9166 11.9015 10.6182 12.2 10.25 12.2C9.88178 12.2 9.58331 11.9015 9.58331 11.5333V10.2H8.24998C7.88178 10.2 7.58331 9.90154 7.58331 9.53334C7.58331 9.16514 7.88178 8.86667 8.24998 8.86667H9.58331V7.53334Z" fill="#172B4D"/>
</svg>
