<svg width="16" height="12" viewBox="0 0 16 12" fill="none" xmlns="http://www.w3.org/2000/svg">
<path fill-rule="evenodd" clip-rule="evenodd" d="M1.90497 11.1333C1.0634 11.1333 0.381165 10.4511 0.381165 9.60953V1.99049C0.381165 1.14891 1.0634 0.466675 1.90497 0.466675H14.0955C14.9371 0.466675 15.6192 1.14891 15.6192 1.99049V9.60953C15.6192 10.4511 14.9371 11.1333 14.0955 11.1333H1.90497ZM14.0955 6.56192V5.0381H6.4764V6.56192H14.0955ZM14.0955 3.51429V1.99049H6.4764V3.51429H14.0955ZM14.0955 8.08572V9.60953H6.4764V8.08572H14.0955ZM1.90497 5.0381V6.56192H4.9526V5.0381H1.90497ZM1.90497 8.08572V9.60953H4.9526V8.08572H1.90497ZM1.90497 3.51429V1.99049H4.9526V3.51429H1.90497Z" fill="#626F86"/>
</svg>
